<svg width="411" height="407" viewBox="0 0 411 407" fill="none" xmlns="http://www.w3.org/2000/svg">
<g opacity="0.5" filter="url(#filter0_f)">
<path d="M407.21 206.606C407.21 258.693 386.519 308.647 349.688 345.478C312.856 382.309 262.903 403 210.816 403C158.729 403 108.775 382.309 71.9444 345.478C35.1133 308.647 14.4219 258.693 14.4219 206.606C14.4219 154.519 35.1133 104.565 71.9444 67.7344C108.775 30.9033 158.729 10.2118 210.816 10.2118C262.903 10.2118 312.856 30.9033 349.688 67.7344C386.519 104.565 407.21 154.519 407.21 206.606V206.606Z" stroke="#897D43" stroke-width="5"/>
</g>
<path d="M392.788 199.394C392.788 251.481 372.097 301.435 335.266 338.266C298.435 375.097 248.481 395.788 196.394 395.788C144.307 395.788 94.3535 375.097 57.5225 338.266C20.6914 301.435 0 251.481 0 199.394C0 147.307 20.6914 97.3536 57.5225 60.5226C94.3535 23.6916 144.307 3 196.394 3C248.481 3 298.435 23.6916 335.266 60.5226C372.097 97.3536 392.788 147.307 392.788 199.394V199.394Z" fill="#F7E79C"/>
<path opacity="0.78422" d="M299.108 302.061L214.255 277.098L141.268 327.061L138.788 238.648L68.7188 184.676L152.04 154.996L181.72 71.6746L235.693 141.744L324.105 144.224L274.142 217.211L299.105 302.064L299.108 302.061Z" fill="#EFD03D" stroke="#BD9E0F" stroke-width="5"/>
<path d="M399.995 199.394C399.995 251.481 379.304 301.435 342.473 338.266C305.642 375.097 255.688 395.788 203.601 395.788C151.514 395.788 101.561 375.097 64.7295 338.266C27.8985 301.435 7.20703 251.481 7.20703 199.394C7.20703 147.307 27.8985 97.3536 64.7295 60.5226C101.561 23.6916 151.514 3 203.601 3C255.688 3 305.642 23.6916 342.473 60.5226C379.304 97.3536 399.995 147.307 399.995 199.394V199.394Z" stroke="#BD9E0F" stroke-width="5"/>
<path opacity="0.78422" d="M50.2266 273.026C192.951 485.964 455.744 37.7066 366.787 270.43C331.629 362.427 228.79 404.554 137.2 368.341C114.303 359.287 95.7652 347.466 79.2431 331.229C62.7209 314.992 29.2836 282.099 50.2229 273.026L50.2266 273.026Z" fill="url(#paint0_linear)"/>
<path opacity="0.78422" d="M354.71 123.166C211.986 -89.772 -50.8073 358.486 38.1497 125.762C73.307 33.7653 176.147 -8.36223 267.736 27.8516C290.633 36.9049 309.171 48.726 325.693 64.9633C342.215 81.1998 375.653 114.093 354.713 123.166L354.71 123.166Z" fill="url(#paint1_linear)"/>
<path d="M299.108 302.061L214.255 277.098L141.268 327.061L138.788 238.648L68.7188 184.676L152.04 154.996L181.72 71.6746L235.693 141.744L324.105 144.224L274.142 217.211L299.105 302.064L299.108 302.061Z" fill="url(#paint2_radial)"/>
<defs>
<filter id="filter0_f" x="10.8326" y="6.62251" width="399.967" height="399.967" filterUnits="userSpaceOnUse" color-interpolation-filters="sRGB">
<feFlood flood-opacity="0" result="BackgroundImageFix"/>
<feBlend mode="normal" in="SourceGraphic" in2="BackgroundImageFix" result="shape"/>
<feGaussianBlur stdDeviation="0.544643" result="effect1_foregroundBlur"/>
</filter>
<linearGradient id="paint0_linear" x1="277.577" y1="381.275" x2="254.211" y2="291.344" gradientUnits="userSpaceOnUse">
<stop stop-color="#EFD03D"/>
<stop offset="1" stop-color="#EFD03D" stop-opacity="0.17647"/>
</linearGradient>
<linearGradient id="paint1_linear" x1="127.359" y1="14.9535" x2="150.725" y2="104.884" gradientUnits="userSpaceOnUse">
<stop stop-color="#EFD03D"/>
<stop offset="1" stop-color="#EFD03D" stop-opacity="0.17647"/>
</linearGradient>
<radialGradient id="paint2_radial" cx="0" cy="0" r="1" gradientUnits="userSpaceOnUse" gradientTransform="translate(196.413 199.365) scale(127.695)">
<stop stop-color="#C4A410"/>
<stop offset="1" stop-color="#77640A" stop-opacity="0"/>
</radialGradient>
</defs>
</svg>
