<svg width="227" height="312" viewBox="0 0 227 312" fill="none" xmlns="http://www.w3.org/2000/svg">
<path d="M103.385 0.499987C122.385 0.499987 139.218 2.99998 153.885 7.99998C168.551 12.6666 181.051 19.1667 191.385 27.5C201.718 35.8333 209.551 45.6666 214.885 57C220.218 68.3333 222.885 80.5 222.885 93.5C222.885 128.5 203.051 161.833 163.385 193.5L97.8848 246H217.885C219.885 249.667 221.718 254.333 223.385 260C225.385 265.667 226.385 271.833 226.385 278.5C226.385 290.5 223.718 299.167 218.385 304.5C213.051 309.5 206.051 312 197.385 312H23.8848C16.5514 307 10.7181 300.667 6.38477 293C2.38477 285 0.384766 275.667 0.384766 265C0.384766 253.667 2.7181 244.167 7.38477 236.5C12.0514 228.5 17.2181 222.167 22.8848 217.5L91.8848 158.5C100.551 151.167 107.718 144.667 113.385 139C119.051 133 123.551 127.667 126.885 123C130.551 118.333 133.051 114 134.385 110C136.051 106 136.885 102.167 136.885 98.5C136.885 89.1667 132.718 81.8333 124.385 76.5C116.385 71.1667 106.385 68.5 94.3848 68.5C81.0514 68.5 69.0514 70.6667 58.3848 75C48.0514 79 39.3848 83.3333 32.3848 88C26.7181 84 22.0514 79 18.3848 73C14.7181 67 12.8848 60 12.8848 52C12.8848 34.6667 21.0514 21.8333 37.3848 13.5C53.7181 4.83332 75.7181 0.499987 103.385 0.499987Z" fill="#7C7C7C" fill-opacity="0.35"/>
</svg>
