<svg width="230" height="320" viewBox="0 0 230 320" fill="none" xmlns="http://www.w3.org/2000/svg">
<path d="M104.605 0.499987C142.939 0.499987 172.105 8.49998 192.105 24.5C212.105 40.1667 222.105 61.3333 222.105 88C222.105 104 217.772 117.667 209.105 129C200.772 140 190.772 148.333 179.105 154C186.105 156.667 192.605 160 198.605 164C204.605 168 209.939 173 214.605 179C219.272 185 222.939 192 225.605 200C228.272 208 229.605 217.333 229.605 228C229.605 242.333 226.439 255.167 220.105 266.5C214.105 277.833 205.605 287.5 194.605 295.5C183.605 303.5 170.439 309.5 155.105 313.5C140.105 317.833 123.605 320 105.605 320C70.9388 320 44.7721 315.167 27.1055 305.5C9.4388 295.833 0.605469 283.5 0.605469 268.5C0.605469 259.5 2.77214 251.833 7.10547 245.5C11.4388 238.833 16.7721 233.667 23.1055 230C29.7721 234.667 38.6055 239.667 49.6055 245C60.9388 250 75.6055 252.5 93.6055 252.5C110.605 252.5 123.105 249.5 131.105 243.5C139.439 237.5 143.605 229.667 143.605 220C143.605 210.333 140.272 203 133.605 198C127.272 193 116.105 190.5 100.105 190.5H53.1055C50.7721 186.833 48.7721 182.333 47.1055 177C45.4388 171.667 44.6055 165.333 44.6055 158C44.6055 150.333 45.2721 143.833 46.6055 138.5C48.2721 132.833 50.4388 128.167 53.1055 124.5H100.105C124.105 124.5 136.105 115.333 136.105 97C136.105 88.3333 132.272 81.3333 124.605 76C116.939 70.6666 105.439 68 90.1055 68C76.4388 68 64.4388 69.6667 54.1055 73C43.7721 76 35.2721 79.8333 28.6055 84.5C22.9388 80.5 18.2721 75.6667 14.6055 70C10.9388 64 9.10547 57 9.10547 49C9.10547 32.3333 17.7721 20.1666 35.1055 12.5C52.4388 4.49999 75.6055 0.499987 104.605 0.499987Z" fill="#7C7C7C" fill-opacity="0.35"/>
</svg>