<svg width="159" height="312" viewBox="0 0 159 312" fill="none" xmlns="http://www.w3.org/2000/svg">
<path d="M73.3555 85L23.3555 100.5C18.3555 97.1667 13.3555 92.5 8.35547 86.5C3.35547 80.5 0.855469 72.1667 0.855469 61.5C0.855469 41.5 13.0221 27.5 37.3555 19.5L93.3555 0.499995H111.855C126.189 0.499995 137.522 4.66666 145.855 13C154.189 21.3333 158.355 32.6667 158.355 47V307.5C154.689 308.167 149.189 309 141.855 310C134.855 311.333 127.689 312 120.355 312C113.022 312 106.355 311.5 100.355 310.5C94.6888 309.5 89.8555 307.5 85.8555 304.5C81.8555 301.5 78.6888 297.5 76.3555 292.5C74.3555 287.167 73.3555 280.333 73.3555 272V85Z" fill="#7C7C7C" fill-opacity="0.35"/>
</svg>